<svg id="Layer_1" data-name="Layer 1" xmlns="http://www.w3.org/2000/svg" viewBox="0 0 126.9 108.44"><defs><style>.cls-1,.cls-2{fill:#fff;}.cls-2{font-size:36px;font-family:Modak;}.cls-3{letter-spacing:0em;}.cls-4{letter-spacing:0.01em;}</style></defs><path class="cls-1" d="M37.25,23.26A28.25,28.25,0,1,0,65.5,51.51,28.25,28.25,0,0,0,37.25,23.26ZM51.56,68.78a2.5,2.5,0,0,1-3-4,17.73,17.73,0,0,0,7.06-14.23,2.5,2.5,0,1,1,5,0A22.72,22.72,0,0,1,51.56,68.78Z" transform="translate(-9 -9)"/><path class="cls-1" d="M87.49,39.36a16.08,16.08,0,1,0,16.07,16.07A16.07,16.07,0,0,0,87.49,39.36Zm8.14,25.9a1.37,1.37,0,0,1-.86.29A1.42,1.42,0,0,1,93.91,63a10.11,10.11,0,0,0,4-8.1,1.43,1.43,0,0,1,2.85,0A12.9,12.9,0,0,1,95.63,65.26Z" transform="translate(-9 -9)"/><path class="cls-1" d="M72.18,9A12.73,12.73,0,1,0,84.91,21.73,12.73,12.73,0,0,0,72.18,9Zm6.45,20.51a1.08,1.08,0,0,1-.68.23,1.12,1.12,0,0,1-.68-2,8,8,0,0,0,3.17-6.41,1.13,1.13,0,1,1,2.26,0A10.25,10.25,0,0,1,78.63,29.51Z" transform="translate(-9 -9)"/><text class="cls-2" transform="translate(48.91 90)"><tspan class="cls-3">b</tspan><tspan class="cls-4" x="19.69" y="0">u</tspan><tspan x="40.15" y="0">bs</tspan></text></svg>