<svg height='100px' width='100px'  fill="#05386b" xmlns="http://www.w3.org/2000/svg" xmlns:xlink="http://www.w3.org/1999/xlink" version="1.1" x="0px" y="0px" viewBox="0 0 24 22" style="enable-background:new 0 0 24 22;" xml:space="preserve"><title>32 -Fountain- (Solid)</title><desc>Created with Sketch.</desc><path d="M23,16h-7v-2h1c2.8,0,5-2.2,5-5c0-0.6-0.4-1-1-1h-5V5.9c2.3-0.5,4-2.5,4-4.9c0-0.6-0.4-1-1-1H5C4.4,0,4,0.4,4,1  c0,2.4,1.7,4.4,4,4.9V8H3C2.4,8,2,8.4,2,9c0,2.8,2.2,5,5,5h1v2H1c-0.6,0-1,0.4-1,1c0,2.8,2.2,5,5,5h14c2.8,0,5-2.2,5-5  C24,16.4,23.6,16,23,16z M14,16h-4v-2h4V16z M14,8h-4V6h4V8z"></path></svg>